<svg width="1306" height="1567" viewBox="0 0 1306 1567" fill="none" xmlns="http://www.w3.org/2000/svg">
<g opacity="0.08">
<path d="M1282.28 798.834C1270.89 818.563 1245.66 825.323 1225.93 813.932L-33.2983 86.9142C-48.0953 78.3712 -53.165 59.4505 -44.622 44.6536L-34.3097 26.7922C-25.7667 11.9953 -6.84596 6.92551 7.95089 15.4685L1267.18 742.486C1286.91 753.877 1293.67 779.105 1282.28 798.834Z" fill="#B0C4D5"/>
<path d="M1285.38 761.064C1296.77 780.793 1290.01 806.021 1270.28 817.412L-0.792985 1551.26C-15.5898 1559.81 -34.5106 1554.74 -43.0536 1539.94L-53.3659 1522.08C-61.9089 1507.28 -56.8391 1488.36 -42.0422 1479.82L1229.03 745.966C1248.76 734.575 1273.98 741.335 1285.38 761.064Z" fill="#FFCB21"/>
<circle cx="-68.631" cy="808.777" r="309.369" transform="rotate(180 -68.631 808.777)" fill="#104B7E"/>
</g>
</svg>
