<svg width="193" height="72" viewBox="0 0 193 72" fill="none" xmlns="http://www.w3.org/2000/svg">
<path d="M20.196 67.0288H17.3449L17.3295 65.6463H19.8194C20.2395 65.6463 20.5956 65.5859 20.8876 65.465C21.1848 65.3391 21.4102 65.1603 21.5639 64.9286C21.7176 64.6919 21.7944 64.4073 21.7944 64.0749C21.7944 63.7072 21.7227 63.4075 21.5793 63.1758C21.4358 62.9441 21.2155 62.7754 20.9183 62.6696C20.6263 62.5639 20.2523 62.511 19.7963 62.511H17.9289V72H16V61H19.7963C20.4111 61 20.9593 61.0579 21.4409 61.1738C21.9276 61.2896 22.3401 61.4709 22.6782 61.7177C23.0215 61.9595 23.2802 62.2667 23.4544 62.6394C23.6337 63.0121 23.7233 63.4554 23.7233 63.9691C23.7233 64.4224 23.6132 64.8379 23.3929 65.2157C23.1726 65.5884 22.8473 65.8931 22.4169 66.1298C21.9866 66.3665 21.4512 66.5076 20.8108 66.5529L20.196 67.0288ZM20.1114 72H16.7378L17.6061 70.4966H20.1114C20.5469 70.4966 20.9107 70.4261 21.2027 70.285C21.4947 70.139 21.7125 69.94 21.8559 69.6882C22.0045 69.4313 22.0788 69.1316 22.0788 68.7891C22.0788 68.4315 22.0147 68.1218 21.8866 67.8599C21.7586 67.5929 21.5562 67.389 21.2795 67.2479C21.0029 67.1019 20.6417 67.0288 20.196 67.0288H18.0288L18.0442 65.6463H20.8646L21.3026 66.1676C21.9174 66.1877 22.422 66.3212 22.8165 66.568C23.2161 66.8148 23.5133 67.1346 23.708 67.5275C23.9027 67.9203 24 68.3434 24 68.7967C24 69.4968 23.8437 70.0836 23.5312 70.557C23.2238 71.0304 22.7807 71.3906 22.2017 71.6374C21.6228 71.8791 20.926 72 20.1114 72Z" fill="#1A1A1A"/>
<path d="M27 61H30.7489C31.5544 61 32.2411 61.1259 32.8089 61.3777C33.3767 61.6296 33.811 62.0023 34.1119 62.4959C34.4177 62.9844 34.5705 63.5888 34.5705 64.3091C34.5705 64.8581 34.4735 65.3416 34.2793 65.7596C34.0852 66.1777 33.811 66.5302 33.4568 66.8173C33.1025 67.0994 32.6803 67.3185 32.1902 67.4746L31.6369 67.7541H28.2666L28.252 66.2507H30.778C31.2147 66.2507 31.5787 66.1701 31.8699 66.0089C32.1611 65.8478 32.3794 65.6287 32.525 65.3516C32.6755 65.0696 32.7507 64.7523 32.7507 64.3997C32.7507 64.0169 32.6779 63.6845 32.5323 63.4025C32.3916 63.1154 32.1732 62.8963 31.8772 62.7452C31.5811 62.5891 31.205 62.511 30.7489 62.511H28.8271V72H27V61ZM33.0491 72L30.5596 67.0591L32.4741 67.0515L35 71.9018V72H33.0491Z" fill="#1A1A1A"/>
<path d="M42.264 62.4657L38.9834 72H37L41.1327 61H42.3997L42.264 62.4657ZM45.0091 72L41.721 62.4657L41.5777 61H42.8522L47 72H45.0091ZM44.8507 67.9203V69.4238H38.8778V67.9203H44.8507Z" fill="#1A1A1A"/>
<path d="M55 70.4966V72H47.5525V70.4966H55ZM54.8306 62.171L48.2376 72H47V70.7988L53.6151 61H54.8306V62.171ZM54.1455 61V62.511H47.0442V61H54.1455Z" fill="#1A1A1A"/>
<path d="M58 61V72H56V61H58Z" fill="#1A1A1A"/>
<path d="M69 70.4966V72H63.3893V70.4966H69ZM63.9265 61V72H62V61H63.9265Z" fill="#1A1A1A"/>
<path d="M73 61V72H71V61H73Z" fill="#1A1A1A"/>
<path d="M79.7903 62.4657L76.1817 72H74L78.546 61H79.9397L79.7903 62.4657ZM82.81 72L79.1931 62.4657L79.0354 61H80.4374L85 72H82.81ZM82.6357 67.9203V69.4238H76.0656V67.9203H82.6357Z" fill="#1A1A1A"/>
<path d="M94 61V72H92.2615L87.7385 64.1202V72H86V61H87.7385L92.2753 68.8949V61H94Z" fill="#1A1A1A"/>
<path d="M105 61V72H103V61H105Z" fill="#1A1A1A"/>
<path d="M110.451 61V72H108.518V61H110.451ZM114 61V62.511H105V61H114Z" fill="#1A1A1A"/>
<path d="M127 66.2059V66.7941C127 67.6029 126.893 68.3284 126.68 68.9706C126.466 69.6127 126.161 70.1593 125.763 70.6103C125.371 71.0613 124.899 71.4069 124.348 71.6471C123.796 71.8824 123.185 72 122.515 72C121.849 72 121.241 71.8824 120.69 71.6471C120.143 71.4069 119.669 71.0613 119.267 70.6103C118.864 70.1593 118.551 69.6127 118.328 68.9706C118.109 68.3284 118 67.6029 118 66.7941V66.2059C118 65.3971 118.109 64.674 118.328 64.0368C118.546 63.3946 118.854 62.848 119.252 62.3971C119.654 61.9412 120.128 61.5956 120.675 61.3603C121.226 61.1201 121.834 61 122.5 61C123.171 61 123.781 61.1201 124.333 61.3603C124.884 61.5956 125.358 61.9412 125.756 62.3971C126.153 62.848 126.459 63.3946 126.672 64.0368C126.891 64.674 127 65.3971 127 66.2059ZM125.13 66.7941V66.1912C125.13 65.5931 125.07 65.0662 124.951 64.6103C124.837 64.1495 124.666 63.7647 124.437 63.4559C124.214 63.1422 123.938 62.9069 123.61 62.75C123.282 62.5882 122.912 62.5074 122.5 62.5074C122.088 62.5074 121.72 62.5882 121.397 62.75C121.074 62.9069 120.799 63.1422 120.57 63.4559C120.347 63.7647 120.175 64.1495 120.056 64.6103C119.937 65.0662 119.877 65.5931 119.877 66.1912V66.7941C119.877 67.3922 119.937 67.9216 120.056 68.3824C120.175 68.8431 120.349 69.2328 120.578 69.5515C120.811 69.8652 121.089 70.1029 121.412 70.2647C121.735 70.4216 122.103 70.5 122.515 70.5C122.932 70.5 123.302 70.4216 123.625 70.2647C123.948 70.1029 124.221 69.8652 124.445 69.5515C124.668 69.2328 124.837 68.8431 124.951 68.3824C125.07 67.9216 125.13 67.3922 125.13 66.7941Z" fill="#1A1A1A"/>
<path d="M132.413 61V72H130.747V61H132.413ZM135 61V62.511L128 62.4657V61H135Z" fill="#1A1A1A"/>
<path d="M140.21 61V72H138.146V61H140.21ZM144 61V62.511H135V61H144Z" fill="#1A1A1A"/>
<path d="M148.264 62.4657L144.983 72H143L147.133 61H148.4L148.264 62.4657ZM151.009 72L147.721 62.4657L147.578 61H148.852L153 72H151.009ZM150.851 67.9203V69.4238H144.878V67.9203H150.851Z" fill="#1A1A1A"/>
<path d="M156.524 69.5295L158.717 61H159.867L159.738 63.1985L157.394 72H156.199L156.524 69.5295ZM154.883 61L156.66 69.4615L156.819 72H155.549L153 61H154.883ZM162.355 69.4389L164.109 61H166L163.451 72H162.181L162.355 69.4389ZM160.313 61L162.483 69.5522L162.801 72H161.606L159.3 63.1985L159.179 61H160.313Z" fill="#1A1A1A"/>
<path d="M172.264 62.4657L168.983 72H167L171.133 61H172.4L172.264 62.4657ZM175.009 72L171.721 62.4657L171.578 61H172.852L177 72H175.009ZM174.851 67.9203V69.4238H168.878V67.9203H174.851Z" fill="#1A1A1A"/>
<path d="M193 26.5C193 41.1355 181.136 53 166.5 53C151.864 53 140 41.1355 140 26.5C140 11.8645 151.864 0 166.5 0C181.136 0 193 11.8645 193 26.5Z" fill="#1A1A1A"/>
<path d="M165.75 44L166.125 36.7191C166.13 36.5994 166.109 36.4799 166.063 36.3695C166.017 36.2592 165.947 36.1607 165.858 36.0814C165.769 36.002 165.664 35.9439 165.55 35.9112C165.436 35.8784 165.317 35.872 165.2 35.8923L158.042 37.1663L159.008 34.4665C159.048 34.3591 159.053 34.2419 159.023 34.1315C158.993 34.021 158.929 33.9228 158.842 33.8506L151 27.4218L152.767 26.5866C152.886 26.5295 152.981 26.4303 153.033 26.3076C153.085 26.1849 153.091 26.0471 153.05 25.9201L151.5 21.0943L156.017 22.0645C156.139 22.0903 156.266 22.0725 156.377 22.0141C156.488 21.9557 156.576 21.8602 156.625 21.7439L157.5 19.66L161.025 23.4903C161.106 23.5764 161.212 23.6337 161.327 23.6536C161.443 23.6735 161.561 23.655 161.666 23.6009C161.77 23.5467 161.854 23.4597 161.905 23.3531C161.956 23.2465 161.972 23.1259 161.95 23.0094L160.25 14.134L162.975 15.7285C163.039 15.7665 163.11 15.7908 163.184 15.7998C163.257 15.8089 163.332 15.8025 163.403 15.7812C163.474 15.7598 163.54 15.7239 163.597 15.6757C163.654 15.6274 163.7 15.5679 163.733 15.5007L166.5 10L169.267 15.5007C169.3 15.5679 169.346 15.6274 169.403 15.6757C169.46 15.7239 169.526 15.7598 169.597 15.7812C169.668 15.8025 169.743 15.8089 169.816 15.7998C169.89 15.7908 169.961 15.7665 170.025 15.7285L172.75 14.134L171.05 23.0094C171.028 23.1259 171.044 23.2465 171.095 23.3531C171.146 23.4597 171.23 23.5467 171.334 23.6009C171.439 23.655 171.557 23.6735 171.673 23.6536C171.788 23.6337 171.894 23.5764 171.975 23.4903L175.5 19.66L176.375 21.7439C176.424 21.8602 176.512 21.9557 176.623 22.0141C176.734 22.0725 176.861 22.0903 176.983 22.0645L181.5 21.0943L179.95 25.9201C179.909 26.0471 179.915 26.1849 179.967 26.3076C180.019 26.4303 180.114 26.5295 180.233 26.5866L182 27.4218L174.158 33.8506C174.071 33.9228 174.007 34.021 173.977 34.1315C173.947 34.2419 173.952 34.3591 173.992 34.4665L174.958 37.1663L167.8 35.8923C167.683 35.872 167.564 35.8784 167.45 35.9112C167.336 35.9439 167.231 36.002 167.142 36.0814C167.053 36.1607 166.983 36.2592 166.937 36.3695C166.891 36.4799 166.87 36.5994 166.875 36.7191L167.25 44H165.75Z" fill="white"/>
<path d="M20.0145 30.1037H7.15294L7.08416 22.1683H17.7104C19.5903 22.1683 21.1149 21.9256 22.2842 21.4402C23.4763 20.9549 24.3475 20.2511 24.8977 19.329C25.448 18.3826 25.7231 17.2177 25.7231 15.8345C25.7231 14.2571 25.448 12.9831 24.8977 12.0124C24.3475 11.0417 23.4763 10.3379 22.2842 9.9011C21.1149 9.44002 19.6018 9.20948 17.7448 9.20948H11.2109V53H0V0H17.7448C20.7481 0 23.4305 0.29121 25.7919 0.873627C28.1532 1.45604 30.1593 2.35394 31.81 3.56731C33.4836 4.78068 34.756 6.29739 35.6271 8.11744C36.4983 9.9375 36.9339 12.0852 36.9339 14.5604C36.9339 16.7202 36.4754 18.7344 35.5584 20.603C34.6642 22.4716 33.2199 23.9883 31.2253 25.1532C29.2308 26.318 26.5599 26.9489 23.2127 27.046L20.0145 30.1037ZM19.5674 53H4.29864L8.35656 43.8269H19.5674C21.2869 43.8269 22.6854 43.5357 23.7629 42.9533C24.8404 42.3709 25.6314 41.5822 26.1357 40.5872C26.6401 39.5923 26.8923 38.476 26.8923 37.2383C26.8923 35.7823 26.6516 34.5204 26.1701 33.4526C25.7116 32.3848 24.978 31.5597 23.9692 30.9773C22.9834 30.3949 21.6652 30.1037 20.0145 30.1037H9.97285L10.0416 22.1683H22.3186L24.9321 25.2988C28.1189 25.226 30.6636 25.772 32.5665 26.9368C34.4923 28.0774 35.8793 29.582 36.7276 31.4505C37.5759 33.3191 38 35.2969 38 37.3839C38 40.8299 37.3008 43.7177 35.9023 46.0474C34.5038 48.3528 32.429 50.0879 29.6778 51.2527C26.9496 52.4176 23.5795 53 19.5674 53Z" fill="#1A1A1A"/>
<path d="M46 0H65.3593C69.215 0 72.5512 0.606686 75.368 1.82005C78.2078 3.03342 80.3896 4.82921 81.9134 7.20742C83.4372 9.58562 84.1991 12.522 84.1991 16.0165C84.1991 18.9286 83.7489 21.4038 82.8485 23.4423C81.948 25.4808 80.6782 27.1674 79.039 28.5021C77.4228 29.8368 75.5296 30.9167 73.3593 31.7418L69.6883 33.853H53.2035L53.1342 24.6435H65.3939C67.0794 24.6435 68.4762 24.3281 69.5844 23.6971C70.6926 23.0662 71.5238 22.1804 72.0779 21.0398C72.6551 19.875 72.9437 18.516 72.9437 16.9629C72.9437 15.3613 72.6551 13.978 72.0779 12.8132C71.5007 11.6484 70.6465 10.7626 69.5152 10.1559C68.4069 9.52496 67.0216 9.20948 65.3593 9.20948H57.29V53H46V0ZM72.0779 53L57.29 31.1047L69.6883 30.1037L86 52.454V53H72.0779Z" fill="#1A1A1A"/>
<path d="M102 0V53H90V0H102Z" fill="#1A1A1A"/>
<path d="M129.537 0V53H118.252V0H129.537ZM140 0V12.0124H107V0H140Z" fill="#1A1A1A"/>
</svg>
