<svg width="73" height="65" viewBox="0 0 73 65" fill="none" xmlns="http://www.w3.org/2000/svg">
<path d="M44.6641 32.4707C44.6641 36.889 40.8585 40.4707 36.1641 40.4707C31.4696 40.4707 27.6641 36.889 27.6641 32.4707C27.6641 28.0524 31.4696 24.4707 36.1641 24.4707C40.8585 24.4707 44.6641 28.0524 44.6641 32.4707Z" fill="#022777"/>
<path d="M37.8639 16.5183C39.4616 15.5813 39.9973 13.5264 39.0603 11.9287C38.1233 10.331 36.0684 9.79532 34.4707 10.7323L37.8639 16.5183ZM2.91394 29.2388C1.3162 30.1758 0.780557 32.2306 1.71755 33.8284C2.65456 35.4261 4.70937 35.9617 6.30712 35.0248L2.91394 29.2388ZM34.4707 10.7323L2.91394 29.2388L6.30712 35.0248L37.8639 16.5183L34.4707 10.7323Z" fill="#FEDD0D"/>
<path d="M2.90566 35.1208C1.30791 34.1838 0.772277 32.129 1.70927 30.5312C2.64627 28.9335 4.70109 28.3979 6.29883 29.3349L2.90566 35.1208ZM37.8556 47.8413C39.4533 48.7783 39.989 50.8332 39.052 52.4309C38.115 54.0286 36.0602 54.5643 34.4624 53.6273L37.8556 47.8413ZM6.29883 29.3349L37.8556 47.8413L34.4624 53.6273L2.90566 35.1208L6.29883 29.3349Z" fill="#069736"/>
<path d="M34.4721 47.8411C32.8743 48.7781 32.3387 50.8329 33.2757 52.4307C34.2127 54.0284 36.2675 54.5641 37.8652 53.6271L34.4721 47.8411ZM69.422 35.1206C71.0197 34.1836 71.5554 32.1288 70.6184 30.531C69.6814 28.9333 67.6266 28.3976 66.0288 29.3346L69.422 35.1206ZM37.8652 53.6271L69.422 35.1206L66.0288 29.3346L34.4721 47.8411L37.8652 53.6271Z" fill="#FEDD0D"/>
<path d="M34.4721 16.5183C32.8743 15.5813 32.3387 13.5264 33.2757 11.9287C34.2127 10.331 36.2675 9.79532 37.8652 10.7323L34.4721 16.5183ZM69.422 29.2388C71.0197 30.1758 71.5554 32.2306 70.6184 33.8284C69.6814 35.4261 67.6266 35.9617 66.0288 35.0248L69.422 29.2388ZM37.8652 10.7323L69.422 29.2388L66.0288 35.0248L34.4721 16.5183L37.8652 10.7323Z" fill="#069736"/>
</svg>
