<svg width="84" height="83" viewBox="0 0 84 83" fill="none" xmlns="http://www.w3.org/2000/svg">
<g clip-path="url(#clip0_1990_7227)">
<path d="M42.3708 44.023C47.9988 44.023 52.9708 45.3696 57.0106 47.1305C60.7396 48.7879 63.0875 52.5169 63.0875 56.5566V62.1501H21.6542V56.5911C21.6542 52.5169 24.002 48.7879 27.731 47.1651C31.7708 45.3696 36.7428 44.023 42.3708 44.023ZM14.7486 44.8862C18.5467 44.8862 21.6542 41.7787 21.6542 37.9807C21.6542 34.1826 18.5467 31.0751 14.7486 31.0751C10.9505 31.0751 7.84305 34.1826 7.84305 37.9807C7.84305 41.7787 10.9505 44.8862 14.7486 44.8862ZM18.6502 48.6843C17.3727 48.4771 16.0952 48.339 14.7486 48.339C11.3304 48.339 8.08475 49.0641 5.14989 50.3416C2.59483 51.4465 0.9375 53.9325 0.9375 56.7292V62.1501H16.475V56.5911C16.475 53.7253 17.2691 51.0322 18.6502 48.6843ZM69.993 44.8862C73.7911 44.8862 76.8986 41.7787 76.8986 37.9807C76.8986 34.1826 73.7911 31.0751 69.993 31.0751C66.195 31.0751 63.0875 34.1826 63.0875 37.9807C63.0875 41.7787 66.195 44.8862 69.993 44.8862ZM83.8041 56.7292C83.8041 53.9325 82.1468 51.4465 79.5917 50.3416C76.6569 49.0641 73.4113 48.339 69.993 48.339C68.6464 48.339 67.3689 48.4771 66.0914 48.6843C67.4725 51.0322 68.2666 53.7253 68.2666 56.5911V62.1501H83.8041V56.7292ZM42.3708 20.7168C48.1024 20.7168 52.7291 25.3435 52.7291 31.0751C52.7291 36.8067 48.1024 41.4335 42.3708 41.4335C36.6392 41.4335 32.0125 36.8067 32.0125 31.0751C32.0125 25.3435 36.6392 20.7168 42.3708 20.7168Z" fill="#0D712E"/>
</g>
<defs>
<clipPath id="clip0_1990_7227">
<rect width="82.8666" height="82.8666" fill="white" transform="translate(0.9375)"/>
</clipPath>
</defs>
</svg>
