<svg width="93" height="65" viewBox="0 0 93 65" fill="none" xmlns="http://www.w3.org/2000/svg">
<path d="M9.88393 61.8334H8.52992L8.52262 61.1655H9.7051C9.90461 61.1655 10.0737 61.1363 10.2124 61.0779C10.3535 61.0171 10.4606 60.9307 10.5336 60.8188C10.6066 60.7045 10.643 60.567 10.643 60.4064C10.643 60.2288 10.609 60.084 10.5409 59.9721C10.4727 59.8602 10.3681 59.7787 10.227 59.7276C10.0883 59.6765 9.91069 59.6509 9.69415 59.6509H8.80729V64.2349H7.89124V58.921H9.69415C9.98612 58.921 10.2465 58.949 10.4752 59.005C10.7063 59.0609 10.9022 59.1485 11.0628 59.2677C11.2258 59.3845 11.3486 59.5329 11.4314 59.713C11.5165 59.893 11.5591 60.1071 11.5591 60.3553C11.5591 60.5743 11.5068 60.775 11.4022 60.9575C11.2975 61.1376 11.143 61.2848 10.9387 61.3991C10.7343 61.5135 10.48 61.5816 10.1759 61.6035L9.88393 61.8334ZM9.84378 64.2349H8.2416L8.65401 63.5086H9.84378C10.0506 63.5086 10.2233 63.4745 10.362 63.4064C10.5007 63.3358 10.6041 63.2397 10.6722 63.1181C10.7428 62.994 10.7781 62.8492 10.7781 62.6838C10.7781 62.511 10.7477 62.3614 10.6868 62.2349C10.626 62.1059 10.5299 62.0074 10.3985 61.9393C10.2671 61.8687 10.0956 61.8334 9.88393 61.8334H8.85473L8.86203 61.1655H10.2014L10.4095 61.4174C10.7014 61.4271 10.9411 61.4916 11.1284 61.6108C11.3182 61.73 11.4593 61.8845 11.5518 62.0743C11.6443 62.2641 11.6905 62.4684 11.6905 62.6874C11.6905 63.0256 11.6163 63.3091 11.4679 63.5378C11.3219 63.7665 11.1114 63.9405 10.8365 64.0597C10.5615 64.1765 10.2306 64.2349 9.84378 64.2349Z" fill="#1A1A1A"/>
<path d="M12.9065 58.921H14.786C15.1899 58.921 15.5342 58.9818 15.8189 59.1035C16.1036 59.2252 16.3213 59.4052 16.4722 59.6436C16.6255 59.8797 16.7021 60.1716 16.7021 60.5196C16.7021 60.7848 16.6534 61.0183 16.5561 61.2203C16.4588 61.4222 16.3213 61.5925 16.1437 61.7312C15.9661 61.8675 15.7544 61.9733 15.5087 62.0487L15.2313 62.1838H13.5415L13.5342 61.4575H14.8006C15.0196 61.4575 15.2021 61.4186 15.3481 61.3407C15.4941 61.2629 15.6036 61.157 15.6766 61.0232C15.752 60.8869 15.7897 60.7337 15.7897 60.5633C15.7897 60.3784 15.7532 60.2178 15.6802 60.0816C15.6096 59.9429 15.5002 59.8371 15.3517 59.7641C15.2033 59.6887 15.0148 59.6509 14.786 59.6509H13.8225V64.2349H12.9065V58.921ZM15.9393 64.2349L14.6912 61.848L15.651 61.8444L16.9174 64.1874V64.2349H15.9393Z" fill="#1A1A1A"/>
<path d="M20.1614 59.629L18.5739 64.2349H17.614L19.614 58.921H20.2271L20.1614 59.629ZM21.4899 64.2349L19.8987 59.629L19.8293 58.921H20.4461L22.4534 64.2349H21.4899ZM21.4133 62.2641V62.9903H18.5228V62.2641H21.4133Z" fill="#1A1A1A"/>
<path d="M26.5575 63.5086V64.2349H22.8677V63.5086H26.5575ZM26.4735 59.4867L23.2071 64.2349H22.594V63.6546L25.8714 58.921H26.4735V59.4867ZM26.1341 58.921V59.6509H22.6159V58.921H26.1341Z" fill="#1A1A1A"/>
<path d="M28.0561 58.921V64.2349H27.14V58.921H28.0561Z" fill="#1A1A1A"/>
<path d="M33.0366 63.5086V64.2349H30.3687V63.5086H33.0366ZM30.6242 58.921V64.2349H29.7081V58.921H30.6242Z" fill="#1A1A1A"/>
<path d="M35.1299 58.921V64.2349H34.2139V58.921H35.1299Z" fill="#1A1A1A"/>
<path d="M38.4465 59.629L36.8589 64.2349H35.899L37.899 58.921H38.5122L38.4465 59.629ZM39.7749 64.2349L38.1837 59.629L38.1144 58.921H38.7312L40.7384 64.2349H39.7749ZM39.6983 62.2641V62.9903H36.8078V62.2641H39.6983Z" fill="#1A1A1A"/>
<path d="M45.503 58.921V64.2349H44.587L42.2038 60.4283V64.2349H41.2877V58.921H42.2038L44.5943 62.7349V58.921H45.503Z" fill="#1A1A1A"/>
<path d="M50.4834 58.8202V64.134H49.5674V58.8202H50.4834Z" fill="#1A1A1A"/>
<path d="M53.3858 58.921V64.2349H52.477V58.921H53.3858ZM55.0536 58.921V59.6509H50.8237V58.921H55.0536Z" fill="#1A1A1A"/>
<path d="M61.1055 61.4322V61.7242C61.1055 62.1256 61.0532 62.4857 60.9486 62.8045C60.844 63.1232 60.6943 63.3945 60.4997 63.6183C60.3075 63.8422 60.0763 64.0137 59.8063 64.1329C59.5362 64.2497 59.2369 64.3081 58.9084 64.3081C58.5824 64.3081 58.2844 64.2497 58.0143 64.1329C57.7466 64.0137 57.5143 63.8422 57.3172 63.6183C57.1201 63.3945 56.9668 63.1232 56.8574 62.8045C56.7503 62.4857 56.6968 62.1256 56.6968 61.7242V61.4322C56.6968 61.0307 56.7503 60.6719 56.8574 60.3556C56.9644 60.0368 57.1153 59.7655 57.3099 59.5417C57.507 59.3154 57.7393 59.1439 58.007 59.0271C58.2771 58.9079 58.5751 58.8483 58.9011 58.8483C59.2296 58.8483 59.5289 58.9079 59.7989 59.0271C60.069 59.1439 60.3014 59.3154 60.496 59.5417C60.6907 59.7655 60.8403 60.0368 60.9449 60.3556C61.052 60.6719 61.1055 61.0307 61.1055 61.4322ZM60.1895 61.7242V61.4249C60.1895 61.1281 60.1603 60.8665 60.1019 60.6402C60.0459 60.4115 59.962 60.2205 59.8501 60.0672C59.7406 59.9115 59.6055 59.7947 59.4449 59.7169C59.2843 59.6366 59.1031 59.5964 58.9011 59.5964C58.6992 59.5964 58.5192 59.6366 58.361 59.7169C58.2029 59.7947 58.0678 59.9115 57.9559 60.0672C57.8464 60.2205 57.7625 60.4115 57.7041 60.6402C57.6457 60.8665 57.6165 61.1281 57.6165 61.4249V61.7242C57.6165 62.021 57.6457 62.2838 57.7041 62.5125C57.7625 62.7412 57.8476 62.9346 57.9596 63.0928C58.0739 63.2485 58.2102 63.3665 58.3683 63.4468C58.5265 63.5247 58.7065 63.5636 58.9084 63.5636C59.1128 63.5636 59.2941 63.5247 59.4522 63.4468C59.6104 63.3665 59.7442 63.2485 59.8537 63.0928C59.9632 62.9346 60.0459 62.7412 60.1019 62.5125C60.1603 62.2838 60.1895 62.021 60.1895 61.7242Z" fill="#1A1A1A"/>
<path d="M63.8522 58.921V64.2349H62.9434V58.921H63.8522ZM65.2634 58.921V59.6509L61.4446 59.629V58.921H65.2634Z" fill="#1A1A1A"/>
<path d="M67.5573 58.921V64.2349H66.6485V58.921H67.5573ZM69.2252 58.921V59.6509H65.2642V58.921H69.2252Z" fill="#1A1A1A"/>
<path d="M71.6462 59.629L70.0586 64.2349H69.0988L71.0987 58.921H71.7119L71.6462 59.629ZM72.9746 64.2349L71.3834 59.629L71.3141 58.921H71.9309L73.9381 64.2349H72.9746ZM72.898 62.2641V62.9903H70.0075V62.2641H72.898Z" fill="#1A1A1A"/>
<path d="M75.6532 63.0414L76.7116 58.921H77.2664L77.2043 59.9831L76.0729 64.2349H75.4963L75.6532 63.0414ZM74.8613 58.921L75.7189 63.0086L75.7956 64.2349H75.1824L73.9525 58.921H74.8613ZM78.4671 62.9976L79.3138 58.921H80.2262L78.9963 64.2349H78.3832L78.4671 62.9976ZM77.4817 58.921L78.5291 63.0524L78.6824 64.2349H78.1058L76.9926 59.9831L76.9343 58.921H77.4817Z" fill="#1A1A1A"/>
<path d="M82.812 59.629L81.2244 64.2349H80.2645L82.2645 58.921H82.8777L82.812 59.629ZM84.1404 64.2349L82.5492 59.629L82.4798 58.921H83.0966L85.1039 64.2349H84.1404ZM84.0638 62.2641V62.9903H81.1733V62.2641H84.0638Z" fill="#1A1A1A"/>
<path d="M92.9984 42.5621C92.9984 49.5827 87.3072 55.2739 80.2867 55.2739C73.2662 55.2739 67.575 49.5827 67.575 42.5621C67.575 35.5416 73.2662 29.8504 80.2867 29.8504C87.3072 29.8504 92.9984 35.5416 92.9984 42.5621Z" fill="#1A1A1A"/>
<path d="M79.9252 50.6445L80.1057 47.1838C80.1083 47.1269 80.0981 47.0701 80.0759 47.0177C80.0537 46.9652 80.02 46.9184 79.9773 46.8807C79.9346 46.843 79.8839 46.8154 79.8291 46.7998C79.7743 46.7843 79.7167 46.7812 79.6606 46.7908L76.2159 47.3964L76.6811 46.1131C76.6999 46.0621 76.7024 46.0064 76.688 45.9539C76.6736 45.9014 76.6431 45.8547 76.6009 45.8204L72.8274 42.7647L73.6775 42.3677C73.7349 42.3406 73.7805 42.2934 73.8056 42.2351C73.8307 42.1768 73.8336 42.1113 73.8139 42.0509L73.068 39.7572L75.2415 40.2183C75.3003 40.2306 75.3617 40.2221 75.415 40.1944C75.4684 40.1666 75.5105 40.1212 75.5342 40.0659L75.9553 39.0755L77.6515 40.896C77.6903 40.9369 77.7413 40.9642 77.7969 40.9736C77.8524 40.9831 77.9096 40.9743 77.9597 40.9486C78.0099 40.9228 78.0503 40.8815 78.075 40.8308C78.0997 40.7801 78.1073 40.7228 78.0966 40.6675L77.2786 36.4489L78.5899 37.2068C78.6207 37.2248 78.6548 37.2363 78.6902 37.2406C78.7257 37.2449 78.7616 37.2419 78.7958 37.2318C78.83 37.2216 78.8618 37.2046 78.8891 37.1816C78.9165 37.1587 78.9388 37.1304 78.9548 37.0985L80.2861 34.4839L81.6175 37.0985C81.6334 37.1304 81.6558 37.1587 81.6831 37.1816C81.7105 37.2046 81.7422 37.2216 81.7765 37.2318C81.8107 37.2419 81.8466 37.2449 81.882 37.2406C81.9174 37.2363 81.9516 37.2248 81.9824 37.2068L83.2937 36.4489L82.4756 40.6675C82.465 40.7228 82.4726 40.7801 82.4973 40.8308C82.5219 40.8815 82.5624 40.9228 82.6125 40.9486C82.6627 40.9743 82.7198 40.9831 82.7754 40.9736C82.831 40.9642 82.882 40.9369 82.9208 40.896L84.617 39.0755L85.0381 40.0659C85.0618 40.1212 85.1039 40.1666 85.1573 40.1944C85.2106 40.2221 85.2719 40.2306 85.3308 40.2183L87.5043 39.7572L86.7584 42.0509C86.7386 42.1113 86.7416 42.1768 86.7667 42.2351C86.7918 42.2934 86.8373 42.3406 86.8947 42.3677L87.7449 42.7647L83.9714 45.8204C83.9291 45.8547 83.8987 45.9014 83.8843 45.9539C83.8699 46.0064 83.8723 46.0621 83.8912 46.1131L84.3564 47.3964L80.9117 46.7908C80.8556 46.7812 80.798 46.7843 80.7431 46.7998C80.6883 46.8154 80.6377 46.843 80.595 46.8807C80.5523 46.9184 80.5186 46.9652 80.4964 47.0177C80.4741 47.0701 80.464 47.1269 80.4666 47.1838L80.647 50.6445H79.9252Z" fill="white"/>
<path d="M9.73182 44.2908H3.47804L3.44459 40.4843H8.61149C9.52559 40.4843 10.2669 40.3679 10.8354 40.135C11.4151 39.9022 11.8387 39.5646 12.1062 39.1223C12.3738 38.6683 12.5076 38.1095 12.5076 37.446C12.5076 36.6894 12.3738 36.0782 12.1062 35.6126C11.8387 35.1469 11.4151 34.8094 10.8354 34.5998C10.2669 34.3786 9.53116 34.2681 8.62821 34.2681H5.45115V55.2739H0V29.8504H8.62821C10.0885 29.8504 11.3928 29.9901 12.541 30.2694C13.6892 30.5488 14.6646 30.9795 15.4672 31.5616C16.281 32.1436 16.8997 32.8712 17.3233 33.7442C17.7469 34.6173 17.9587 35.6475 17.9587 36.8349C17.9587 37.8709 17.7358 38.8371 17.2899 39.7334C16.8551 40.6298 16.1528 41.3573 15.183 41.9161C14.2131 42.4748 12.9144 42.7775 11.2869 42.8241L9.73182 44.2908ZM9.51444 55.2739H2.09017L4.06328 50.8737H9.51444C10.3505 50.8737 11.0305 50.734 11.5544 50.4546C12.0784 50.1752 12.463 49.7969 12.7082 49.3196C12.9535 48.8424 13.0761 48.3069 13.0761 47.7132C13.0761 47.0148 12.959 46.4094 12.7249 45.8972C12.502 45.385 12.1453 44.9893 11.6548 44.7099C11.1754 44.4305 10.5344 44.2908 9.73182 44.2908H4.84919L4.88263 40.4843H10.8521L12.123 41.9859C13.6725 41.951 14.9099 42.2129 15.8351 42.7717C16.7715 43.3188 17.4459 44.0405 17.8584 44.9369C18.2708 45.8332 18.4771 46.7819 18.4771 47.7831C18.4771 49.4361 18.1371 50.8213 17.4571 51.9388C16.7771 53.0447 15.7682 53.877 14.4305 54.4358C13.104 54.9945 11.4653 55.2739 9.51444 55.2739Z" fill="#1A1A1A"/>
<path d="M22.0087 29.8504H31.3559C33.2175 29.8504 34.8284 30.1414 36.1884 30.7234C37.5595 31.3055 38.613 32.1669 39.3487 33.3077C40.0844 34.4485 40.4523 35.857 40.4523 37.5333C40.4523 38.9302 40.2349 40.1176 39.8002 41.0954C39.3654 42.0732 38.7523 42.8823 37.9608 43.5225C37.1805 44.1628 36.2664 44.6808 35.2185 45.0766L33.4461 46.0893H25.4867L25.4533 41.6716H31.3726C32.1864 41.6716 32.8608 41.5203 33.3959 41.2176C33.931 40.915 34.3323 40.4901 34.5998 39.943C34.8785 39.3842 35.0179 38.7323 35.0179 37.9873C35.0179 37.219 34.8785 36.5555 34.5998 35.9967C34.3211 35.438 33.9087 35.0131 33.3625 34.7221C32.8274 34.4194 32.1585 34.2681 31.3559 34.2681H27.4598V55.2739H22.0087V29.8504ZM34.5998 55.2739L27.4598 44.771L33.4461 44.2908L41.3218 55.012V55.2739H34.5998Z" fill="#1A1A1A"/>
<path d="M49.0178 29.8504V55.2739H43.5834V29.8504H49.0178Z" fill="#1A1A1A"/>
<path d="M62.5398 29.8504V55.2739H57.1054V29.8504H62.5398ZM67.5784 29.8504V35.6126H51.6865V29.8504H67.5784Z" fill="#1A1A1A"/>
<path d="M50.4042 15.6182C50.4042 17.7761 48.6549 19.5254 46.497 19.5254C44.3392 19.5254 42.5898 17.7761 42.5898 15.6182C42.5898 13.4603 44.3392 11.711 46.497 11.711C48.6549 11.711 50.4042 13.4603 50.4042 15.6182Z" fill="#022777"/>
<path d="M47.3209 7.95958C48.0908 7.50807 48.3489 6.51793 47.8974 5.74803C47.4459 4.97813 46.4558 4.72002 45.6859 5.17153L47.3209 7.95958ZM30.4798 14.0892C29.7099 14.5407 29.4518 15.5308 29.9033 16.3007C30.3548 17.0706 31.3449 17.3287 32.1148 16.8772L30.4798 14.0892ZM45.6859 5.17153L30.4798 14.0892L32.1148 16.8772L47.3209 7.95958L45.6859 5.17153Z" fill="#FEDD0D"/>
<path d="M30.4759 16.9225C29.706 16.471 29.4479 15.4808 29.8994 14.7109C30.3509 13.941 31.3411 13.6829 32.111 14.1344L30.4759 16.9225ZM47.3171 23.0521C48.087 23.5036 48.3451 24.4937 47.8936 25.2636C47.4421 26.0335 46.4519 26.2916 45.682 25.8401L47.3171 23.0521ZM32.111 14.1344L47.3171 23.0521L45.682 25.8401L30.4759 16.9225L32.111 14.1344Z" fill="#069736"/>
<path d="M45.683 23.0521C44.9131 23.5036 44.655 24.4938 45.1065 25.2637C45.558 26.0336 46.5481 26.2917 47.318 25.8402L45.683 23.0521ZM62.5241 16.9225C63.294 16.471 63.5521 15.4809 63.1006 14.711C62.6491 13.9411 61.659 13.683 60.8891 14.1345L62.5241 16.9225ZM47.318 25.8402L62.5241 16.9225L60.8891 14.1345L45.683 23.0521L47.318 25.8402Z" fill="#FEDD0D"/>
<path d="M45.683 7.95958C44.9131 7.50807 44.655 6.51793 45.1065 5.74803C45.558 4.97813 46.5481 4.72002 47.318 5.17153L45.683 7.95958ZM62.5241 14.0892C63.294 14.5407 63.5521 15.5308 63.1006 16.3007C62.6491 17.0706 61.659 17.3287 60.8891 16.8772L62.5241 14.0892ZM47.318 5.17153L62.5241 14.0892L60.8891 16.8772L45.683 7.95958L47.318 5.17153Z" fill="#069736"/>
</svg>
