<svg width="319" height="411" viewBox="0 0 319 411" fill="none" xmlns="http://www.w3.org/2000/svg">
<g opacity="0.08">
<circle cx="346.104" cy="206.457" r="77.8934" fill="#104B7E"/>
<path d="M5.97508 208.96C8.84303 203.993 15.1949 202.291 20.1623 205.159L337.213 388.208C340.939 390.359 342.215 395.123 340.064 398.849L337.468 403.346C335.317 407.071 330.553 408.348 326.828 406.197L9.77651 223.147C4.80907 220.279 3.10712 213.928 5.97508 208.96Z" fill="#B0C4D5"/>
<path d="M5.19289 218.471C2.32494 213.503 4.02691 207.152 8.99435 204.284L356.077 3.89519C359.803 1.74422 364.567 3.0207 366.718 6.74628L369.314 11.2435C371.465 14.969 370.189 19.7329 366.463 21.8839L19.3801 222.272C14.4127 225.14 8.06085 223.438 5.19289 218.471Z" fill="#FFCB21"/>
</g>
</svg>
