<svg width="35" height="32" viewBox="0 0 35 32" fill="none" xmlns="http://www.w3.org/2000/svg">
<path d="M21.4042 15.6182C21.4042 17.7761 19.6549 19.5254 17.497 19.5254C15.3392 19.5254 13.5898 17.7761 13.5898 15.6182C13.5898 13.4603 15.3392 11.711 17.497 11.711C19.6549 11.711 21.4042 13.4603 21.4042 15.6182Z" fill="#022777"/>
<path d="M18.3209 7.95958C19.0908 7.50807 19.3489 6.51793 18.8974 5.74803C18.4459 4.97813 17.4558 4.72002 16.6859 5.17153L18.3209 7.95958ZM1.47978 14.0892C0.709882 14.5407 0.451776 15.5308 0.903283 16.3007C1.35479 17.0706 2.34494 17.3287 3.11483 16.8772L1.47978 14.0892ZM16.6859 5.17153L1.47978 14.0892L3.11483 16.8772L18.3209 7.95958L16.6859 5.17153Z" fill="#FEDD0D"/>
<path d="M1.47593 16.9225C0.706032 16.471 0.447927 15.4808 0.899434 14.7109C1.35094 13.941 2.34109 13.6829 3.11098 14.1344L1.47593 16.9225ZM18.3171 23.0521C19.087 23.5036 19.3451 24.4937 18.8936 25.2636C18.4421 26.0335 17.4519 26.2916 16.682 25.8401L18.3171 23.0521ZM3.11098 14.1344L18.3171 23.0521L16.682 25.8401L1.47593 16.9225L3.11098 14.1344Z" fill="#069736"/>
<path d="M16.683 23.0521C15.9131 23.5036 15.655 24.4938 16.1065 25.2637C16.558 26.0336 17.5481 26.2917 18.318 25.8402L16.683 23.0521ZM33.5241 16.9225C34.294 16.471 34.5521 15.4809 34.1006 14.711C33.6491 13.9411 32.659 13.683 31.8891 14.1345L33.5241 16.9225ZM18.318 25.8402L33.5241 16.9225L31.8891 14.1345L16.683 23.0521L18.318 25.8402Z" fill="#FEDD0D"/>
<path d="M16.683 7.95958C15.9131 7.50807 15.655 6.51793 16.1065 5.74803C16.558 4.97813 17.5481 4.72002 18.318 5.17153L16.683 7.95958ZM33.5241 14.0892C34.294 14.5407 34.5521 15.5308 34.1006 16.3007C33.6491 17.0706 32.659 17.3287 31.8891 16.8772L33.5241 14.0892ZM18.318 5.17153L33.5241 14.0892L31.8891 16.8772L16.683 7.95958L18.318 5.17153Z" fill="#069736"/>
</svg>
