<svg width="19" height="19" viewBox="0 0 19 19" fill="none" xmlns="http://www.w3.org/2000/svg">
<path fill-rule="evenodd" clip-rule="evenodd" d="M0.851562 9.39453C0.851562 5.79939 0.851562 4.00182 1.70825 2.70708C2.09081 2.12892 2.58595 1.63378 3.16412 1.25122C4.45885 0.394531 6.25642 0.394531 9.85156 0.394531C13.4467 0.394531 15.2443 0.394531 16.539 1.25122C17.1172 1.63378 17.6123 2.12892 17.9949 2.70708C18.8516 4.00182 18.8516 5.79939 18.8516 9.39453C18.8516 12.9897 18.8516 14.7872 17.9949 16.082C17.6123 16.6601 17.1172 17.1553 16.539 17.5378C15.2443 18.3945 13.4467 18.3945 9.85156 18.3945C6.25642 18.3945 4.45885 18.3945 3.16412 17.5378C2.58595 17.1553 2.09081 16.6601 1.70825 16.082C0.851562 14.7872 0.851562 12.9897 0.851562 9.39453ZM14.5108 9.39476C14.5108 11.9681 12.4247 14.0542 9.8514 14.0542C7.27808 14.0542 5.19199 11.9681 5.19199 9.39476C5.19199 6.82144 7.27808 4.73535 9.8514 4.73535C12.4247 4.73535 14.5108 6.82144 14.5108 9.39476ZM9.8514 12.4778C11.5541 12.4778 12.9344 11.0975 12.9344 9.39476C12.9344 7.69206 11.5541 6.31176 9.8514 6.31176C8.14871 6.31176 6.7684 7.69206 6.7684 9.39476C6.7684 11.0975 8.14871 12.4778 9.8514 12.4778ZM14.6948 5.59608C15.2995 5.59608 15.7897 5.10591 15.7897 4.50126C15.7897 3.8966 15.2995 3.40643 14.6948 3.40643C14.0902 3.40643 13.6 3.8966 13.6 4.50126C13.6 5.10591 14.0902 5.59608 14.6948 5.59608Z" fill="#022777"/>
</svg>
