<svg width="65" height="65" viewBox="0 0 65 65" fill="none" xmlns="http://www.w3.org/2000/svg">
<circle cx="32.6157" cy="32.9258" r="26.6353" fill="#022777"/>
<path d="M32.6179 19.8262C36.885 19.8262 37.3905 19.8426 39.0756 19.9194C40.6338 19.9905 41.48 20.2508 42.0431 20.4697C42.7891 20.7596 43.3214 21.1059 43.8806 21.6651C44.4399 22.2244 44.7862 22.7567 45.0761 23.5027C45.295 24.0658 45.5553 24.912 45.6264 26.4701C45.7032 28.1553 45.7195 28.6607 45.7195 32.9278C45.7195 37.195 45.7032 37.7005 45.6264 39.3856C45.5553 40.9438 45.295 41.7899 45.0761 42.3531C44.7862 43.099 44.4399 43.6314 43.8807 44.1906C43.3214 44.7498 42.7891 45.0962 42.0431 45.3861C41.48 45.6049 40.6338 45.8653 39.0756 45.9363C37.3907 46.0132 36.8853 46.0295 32.6179 46.0295C28.3504 46.0295 27.8451 46.0132 26.1601 45.9363C24.602 45.8653 23.7558 45.6049 23.1926 45.3861C22.4467 45.0962 21.9143 44.7498 21.3551 44.1906C20.7959 43.6314 20.4496 43.099 20.1596 42.3531C19.9408 41.7899 19.6804 40.9438 19.6094 39.3856C19.5325 37.7005 19.5162 37.195 19.5162 32.9278C19.5162 28.6607 19.5325 28.1553 19.6094 26.4701C19.6804 24.912 19.9408 24.0658 20.1596 23.5027C20.4496 22.7567 20.7959 22.2244 21.3551 21.6652C21.9143 21.1059 22.4467 20.7596 23.1926 20.4697C23.7558 20.2508 24.602 19.9905 26.1601 19.9194C27.8453 19.8426 28.3507 19.8262 32.6179 19.8262ZM32.6179 16.9468C28.2777 16.9468 27.7334 16.9652 26.0289 17.0429C24.3279 17.1205 23.1661 17.3907 22.1496 17.7857C21.0987 18.1941 20.2075 18.7406 19.319 19.629C18.4305 20.5175 17.8841 21.4088 17.4757 22.4596C17.0807 23.4762 16.8105 24.6379 16.7329 26.3389C16.6551 28.0434 16.6367 28.5877 16.6367 32.9278C16.6367 37.2681 16.6551 37.8123 16.7329 39.5169C16.8105 41.2179 17.0807 42.3796 17.4757 43.3961C17.8841 44.447 18.4305 45.3382 19.319 46.2267C20.2075 47.1152 21.0987 47.6616 22.1496 48.07C23.1661 48.465 24.3279 48.7352 26.0289 48.8128C27.7334 48.8906 28.2777 48.909 32.6179 48.909C36.9581 48.909 37.5023 48.8906 39.2069 48.8128C40.9079 48.7352 42.0696 48.465 43.0861 48.07C44.137 47.6616 45.0283 47.1152 45.9168 46.2267C46.8052 45.3382 47.3517 44.447 47.7601 43.3961C48.1551 42.3796 48.4253 41.2179 48.5029 39.5169C48.5806 37.8123 48.599 37.2681 48.599 32.9278C48.599 28.5877 48.5806 28.0434 48.5029 26.3389C48.4253 24.6379 48.1551 23.4762 47.7601 22.4596C47.3517 21.4088 46.8052 20.5175 45.9168 19.629C45.0283 18.7406 44.137 18.1941 43.0861 17.7857C42.0696 17.3907 40.9079 17.1205 39.2069 17.0429C37.5023 16.9652 36.9581 16.9468 32.6179 16.9468Z" fill="#F5F5FA"/>
<path d="M32.6323 24.729C28.0999 24.729 24.4258 28.4032 24.4258 32.9355C24.4258 37.4679 28.0999 41.142 32.6323 41.142C37.1647 41.142 40.8389 37.4679 40.8389 32.9355C40.8389 28.4032 37.1647 24.729 32.6323 24.729ZM32.6323 38.2625C29.6903 38.2625 27.3053 35.8776 27.3053 32.9355C27.3053 29.9935 29.6903 27.6085 32.6323 27.6085C35.5744 27.6085 37.9594 29.9935 37.9594 32.9355C37.9594 35.8776 35.5744 38.2625 32.6323 38.2625Z" fill="#F5F5FA"/>
<path d="M43.066 24.3982C43.066 25.4573 42.2073 26.3159 41.1482 26.3159C40.0891 26.3159 39.2305 25.4573 39.2305 24.3982C39.2305 23.3391 40.0891 22.4805 41.1482 22.4805C42.2073 22.4805 43.066 23.3391 43.066 24.3982Z" fill="#F5F5FA"/>
</svg>
