<svg width="65" height="65" viewBox="0 0 65 65" fill="none" xmlns="http://www.w3.org/2000/svg">
<circle cx="32.8501" cy="32.9258" r="26.6353" fill="#022777"/>
<path fill-rule="evenodd" clip-rule="evenodd" d="M25.8823 19.9884C25.8823 21.6465 24.6197 22.9885 22.6453 22.9885C20.7478 22.9885 19.4852 21.6465 19.5243 19.9884C19.4852 18.2496 20.7478 16.9468 22.6831 16.9468C24.6197 16.9468 25.8444 18.2496 25.8823 19.9884ZM19.6831 44.6728V25.3585H25.6857V44.6716H19.6831V44.6728Z" fill="#F5F5FA"/>
<path fill-rule="evenodd" clip-rule="evenodd" d="M30.4947 31.5196C30.4947 29.1105 30.4153 27.0567 30.3359 25.3583H35.5498L35.8269 28.0043H35.9454C36.7354 26.7796 38.7098 24.9248 41.9089 24.9248C45.8578 24.9248 48.82 27.5317 48.82 33.2169V44.6726H42.8174V33.969C42.8174 31.4793 41.9492 29.7821 39.777 29.7821C38.1176 29.7821 37.131 30.9274 36.7366 32.0324C36.5779 32.4281 36.4997 32.98 36.4997 33.5343V44.6726H30.4971V31.5196H30.4947Z" fill="#F5F5FA"/>
</svg>
