<svg width="19" height="18" viewBox="0 0 19 18" fill="none" xmlns="http://www.w3.org/2000/svg">
<path d="M0.851562 2.31458C0.851562 1.73737 1.05427 1.26118 1.45967 0.886013C1.86507 0.510827 2.39211 0.323242 3.04075 0.323242C3.67782 0.323242 4.19326 0.507935 4.58708 0.877355C4.99248 1.25831 5.19519 1.75469 5.19519 2.36653C5.19519 2.92064 4.99829 3.38239 4.60446 3.75181C4.19906 4.13276 3.66623 4.32324 3.006 4.32324H2.98863C2.35156 4.32324 1.83612 4.13276 1.4423 3.75181C1.04847 3.37086 0.851562 2.89178 0.851562 2.31458ZM1.07743 17.4661V5.899H4.93457V17.4661H1.07743ZM7.07164 17.4661H10.9288V11.0072C10.9288 10.6032 10.9751 10.2915 11.0678 10.0722C11.2299 9.67965 11.4761 9.34776 11.8062 9.07649C12.1363 8.8052 12.5504 8.66956 13.0485 8.66956C14.3458 8.66956 14.9944 9.54113 14.9944 11.2843V17.4661H18.8516V10.8341C18.8516 9.12554 18.4462 7.82973 17.6353 6.94662C16.8245 6.0635 15.7531 5.62194 14.4211 5.62194C12.9269 5.62194 11.7628 6.26263 10.9288 7.54402V7.57865H10.9114L10.9288 7.54402V5.899H7.07164C7.0948 6.2684 7.10639 7.41702 7.10639 9.34488C7.10639 11.2727 7.0948 13.9798 7.07164 17.4661Z" fill="#022777"/>
</svg>
