<svg width="825" height="823" viewBox="0 0 825 823" fill="none" xmlns="http://www.w3.org/2000/svg">
<path d="M334.783 135.288C382.609 78.9178 406.522 0 406.522 0C406.522 0 442.391 101.466 502.174 135.288C529.033 150.483 573.913 101.466 573.913 101.466C573.913 101.466 526.087 338.219 538.044 326.945L633.696 236.753C633.696 236.753 655.374 285.372 681.522 281.849C765.217 270.575 825 259.301 825 259.301C825 259.301 716.659 360.767 753.261 394.589C771.22 411.184 813.044 417.137 813.044 417.137C813.044 417.137 621.739 552.425 597.826 574.973C573.913 597.521 645.652 653.89 645.652 653.89C645.652 653.89 454.348 620.068 430.435 620.068C406.522 620.068 430.435 823 430.435 823H382.609C382.609 823 406.522 620.068 382.609 620.068C358.696 620.068 179.348 653.89 179.348 653.89C179.348 653.89 227.174 597.521 203.261 574.973C179.348 552.425 0 417.137 0 417.137C0 417.137 41.685 411.049 59.7826 394.589C101.352 356.781 23.913 259.301 23.913 259.301C23.913 259.301 83.6957 281.849 143.478 281.849C166.825 281.849 179.348 236.753 179.348 236.753C179.348 236.753 275 315.671 286.957 326.945C298.913 338.219 251.087 101.466 251.087 101.466C251.087 101.466 312.568 161.471 334.783 135.288Z" fill="#C21212" fill-opacity="0.15"/>
</svg>
